HIERARCHY
ROOT Hips
{
	OFFSET 50.450401 -7.063304 84.103500
	CHANNELS 6 Xposition Yposition Zposition Xrotation Yrotation Zrotation
	JOINT spine
	{
		OFFSET 0.000000 -0.342408 5.954376
		CHANNELS 3 Xrotation Yrotation Zrotation
		JOINT spine1
		{
			OFFSET 0.000000 -0.000001 8.856018
			CHANNELS 3 Xrotation Yrotation Zrotation
			JOINT spine2
			{
				OFFSET 0.000000 -0.000001 8.485672
				CHANNELS 3 Xrotation Yrotation Zrotation
				JOINT Neck
				{
					OFFSET 0.000000 -1.038703 21.786301
					CHANNELS 3 Xrotation Yrotation Zrotation
					JOINT Head
					{
						OFFSET 0.000000 -0.000001 6.582199
						CHANNELS 3 Xrotation Yrotation Zrotation
						End Site
						{
							OFFSET 0.000000 5.254357 15.932602
						}
					}
				}
				JOINT RightShoulder
				{
					OFFSET -3.573071 0.497524 9.163864
					CHANNELS 3 Xrotation Yrotation Zrotation
					JOINT RightArm
					{
						OFFSET 0.000000 -0.000002 12.019196
						CHANNELS 3 Xrotation Yrotation Zrotation
						JOINT RightArmRoll
						{
							OFFSET 0.000000 -0.000001 6.067535
							CHANNELS 3 Xrotation Yrotation Zrotation
							JOINT RightForeArm
							{
								OFFSET 0.000000 -0.000003 17.672592
								CHANNELS 3 Xrotation Yrotation Zrotation
								JOINT RightForeArmRoll
								{
									OFFSET 0.000000 -0.000001 6.808716
									CHANNELS 3 Xrotation Yrotation Zrotation
									JOINT RightHand
									{
										OFFSET 0.000000 -0.000002 13.663605
										CHANNELS 3 Xrotation Yrotation Zrotation
										End Site
										{
											OFFSET 0.000000 0.000000 0.100006
										}
									}
								}
							}
						}
					}
				}
				JOINT LeftShoulder
				{
					OFFSET 3.573071 0.497524 9.163864
					CHANNELS 3 Xrotation Yrotation Zrotation
					JOINT LeftArm
					{
						OFFSET 0.000000 -0.000002 12.019196
						CHANNELS 3 Xrotation Yrotation Zrotation
						JOINT LeftArmRoll
						{
							OFFSET 0.000000 -0.000001 6.067535
							CHANNELS 3 Xrotation Yrotation Zrotation
							JOINT LeftForeArm
							{
								OFFSET 0.000000 -0.000003 17.672592
								CHANNELS 3 Xrotation Yrotation Zrotation
								JOINT LeftForeArmRoll
								{
									OFFSET 0.000000 -0.000001 6.808716
									CHANNELS 3 Xrotation Yrotation Zrotation
									JOINT LeftHand
									{
										OFFSET 0.000000 -0.000002 13.663605
										CHANNELS 3 Xrotation Yrotation Zrotation
										End Site
										{
											OFFSET 0.000000 0.000000 0.100006
										}
									}
								}
							}
						}
					}
				}
			}
		}
	}
	JOINT RightUpLeg
	{
		OFFSET -5.277740 0.811859 -0.967796
		CHANNELS 3 Xrotation Yrotation Zrotation
		JOINT RightUpLegRoll
		{
			OFFSET 0.000000 -0.000003 16.021400
			CHANNELS 3 Xrotation Yrotation Zrotation
			JOINT RightLeg
			{
				OFFSET 0.000000 0.000003 -19.840103
				CHANNELS 3 Xrotation Yrotation Zrotation
				JOINT RightLegRoll
				{
					OFFSET 0.000000 -0.000003 19.904999
					CHANNELS 3 Xrotation Yrotation Zrotation
					JOINT RightFoot
					{
						OFFSET 0.000000 -0.000003 16.567497
						CHANNELS 3 Xrotation Yrotation Zrotation
						JOINT RightToeBase
						{
							OFFSET 0.000000 -0.000002 13.849602
							CHANNELS 3 Xrotation Yrotation Zrotation
							End Site
							{
								OFFSET 0.005871 0.773116 6.707275
							}
						}
					}
				}
			}
		}
	}
	JOINT LeftUpLeg
	{
		OFFSET 5.277740 0.811859 -0.967796
		CHANNELS 3 Xrotation Yrotation Zrotation
		JOINT LeftUpLegRoll
		{
			OFFSET 0.000000 -0.000003 16.021500
			CHANNELS 3 Xrotation Yrotation Zrotation
			JOINT LeftLeg
			{
				OFFSET 0.000000 -0.000003 19.840004
				CHANNELS 3 Xrotation Yrotation Zrotation
				JOINT LeftLegRoll
				{
					OFFSET 0.000000 -0.000003 20.089005
					CHANNELS 3 Xrotation Yrotation Zrotation
					JOINT LeftFoot
					{
						OFFSET 0.000000 -0.000002 16.383499
						CHANNELS 3 Xrotation Yrotation Zrotation
						JOINT LeftToeBase
						{
							OFFSET 0.000000 -0.000002 13.849594
							CHANNELS 3 Xrotation Yrotation Zrotation
							End Site
							{
								OFFSET -0.026310 0.773116 6.707275
							}
						}
					}
				}
			}
		}
	}
}
MOTION
Frames: 12
Frame Time: 0.041667
52.093700 -5.822173 84.214989 -0.685878 -8.984127 79.286892 -0.786077 0.107042 0.031578 2.430598 0.213931 0.059062 4.075678 0.214691 0.057392 5.034865 10.384357 -1.814031 1.840018 -9.735473 -2.815970 10.836147 -67.875961 11.091187 104.548565 -44.358817 87.412057 0.000000 0.000000 -0.000000 76.786571 2.309476 -4.534777 0.000008 0.000008 -2.999989 -4.999735 -7.999894 0.000008 -16.797440 66.527730 19.912732 -68.469484 123.581659 72.531876 -0.000004 -0.000000 -0.000000 -0.027466 -3.642511 1.990654 0.000009 -0.000010 3.011609 -5.000195 7.999931 -0.000005 4.944068 -177.847034 3.393817 -179.999991 0.000005 -1.329001 167.810890 0.030305 -0.533457 -0.000001 -0.000007 0.176063 69.176477 6.916782 2.036131 25.456957 -7.355623 -0.000006 -1.788902 179.385302 0.306148 -0.000004 -0.000004 -1.128010 -12.855876 1.775236 0.589652 -0.000000 -0.000005 -0.198914 70.249240 -6.866470 -2.123041 25.456754 7.355599 -0.000012 
52.071003 -5.810013 84.205101 -0.658661 -9.000263 79.379052 -0.787671 0.110962 0.031483 2.427409 0.221768 0.059124 4.072482 0.222525 0.057274 5.038797 10.441886 -1.844574 1.825068 -9.779483 -2.854081 10.818618 -67.882101 11.070658 104.384285 -44.252772 87.314434 0.000002 -0.000001 0.000000 76.908763 2.305474 -4.535617 0.000007 0.000005 -2.999991 -4.999729 -7.999894 0.000007 -16.832170 66.508960 19.952123 -68.427806 123.647051 72.536281 -0.000002 -0.000001 0.000001 -0.027460 -3.642491 1.990656 0.000009 -0.000009 3.011609 -5.000192 7.999931 -0.000004 4.960958 -177.849069 3.392198 -179.999991 0.000005 -1.328999 167.783296 0.040075 -0.533323 -0.000001 -0.000007 0.177358 69.187282 6.916867 2.036071 25.456953 -7.355623 -0.000008 -1.773855 179.399304 0.311959 -0.000004 -0.000004 -1.128081 -12.837176 1.776412 0.589682 0.000000 -0.000005 -0.197903 70.229385 -6.866459 -2.123665 25.456752 7.355599 -0.000012 
52.078300 -5.826875 84.204102 -0.632365 -9.016260 79.471191 -0.789308 0.114886 0.031399 2.424130 0.229612 0.059219 4.069202 0.230369 0.057185 5.043956 10.498201 -1.875060 1.809219 -9.822504 -2.892027 10.803997 -67.889861 11.053094 104.224008 -44.145941 87.218114 -0.000002 0.000001 0.000000 77.026345 2.301705 -4.536422 0.000008 0.000005 -2.999990 -4.999728 -7.999896 0.000003 -16.866594 66.490082 19.991156 -68.389407 123.711993 72.543760 0.000001 -0.000000 -0.000000 -0.027462 -3.642451 1.990654 0.000012 -0.000009 3.011611 -5.000191 7.999929 -0.000002 4.977381 -177.852115 3.390438 -179.999991 0.000005 -1.328999 167.754992 0.048868 -0.533398 -0.000001 -0.000008 0.178672 69.198204 6.916986 2.036110 25.456955 -7.355622 -0.000007 -1.758047 179.413278 0.317623 -0.000004 -0.000004 -1.128179 -12.817375 1.777682 0.589724 -0.000000 -0.000005 -0.196856 70.208703 -6.866486 -2.124249 25.456752 7.355599 -0.000012 
52.109104 -5.867472 84.222191 -0.606811 -9.032145 79.563234 -0.790976 0.118811 0.031328 2.420791 0.237464 0.059340 4.065866 0.238219 0.057115 5.049984 10.553803 -1.905526 1.792743 -9.864811 -2.929887 10.791351 -67.898603 11.037544 104.066750 -44.038492 87.122840 -0.000001 -0.000001 0.000000 77.140833 2.298064 -4.537156 0.000010 0.000008 -2.999992 -4.999730 -7.999897 0.000007 -16.900820 66.471230 20.029941 -68.351383 123.777139 72.551109 -0.000001 0.000001 -0.000000 -0.027460 -3.642411 1.990655 0.000009 -0.000011 3.011610 -5.000192 7.999929 -0.000004 4.993492 -177.855175 3.388607 -179.999991 0.000005 -1.329000 167.726292 0.058634 -0.534241 -0.000000 -0.000008 0.180004 69.209337 6.917114 2.036038 25.456955 -7.355622 -0.000005 -1.741714 179.427280 0.323186 -0.000004 -0.000005 -1.128302 -12.796774 1.779008 0.589774 -0.000000 -0.000005 -0.195785 70.187577 -6.866453 -2.124848 25.456754 7.355597 -0.000012 
52.102104 -5.867123 84.216782 -0.581814 -9.047922 79.655203 -0.792661 0.122738 0.031260 2.417422 0.245319 0.059473 4.062497 0.246072 0.057059 5.056513 10.608998 -1.935982 1.775905 -9.906713 -2.967685 10.779842 -67.907974 11.023166 103.910489 -43.930725 87.026999 0.000003 0.000002 -0.000002 77.253408 2.294543 -4.537907 0.000006 0.000007 -2.999990 -4.999733 -7.999897 0.000008 -16.934918 66.452386 20.068622 -68.313742 123.842463 72.558541 -0.000001 0.000000 -0.000000 -0.027460 -3.642361 1.990656 0.000011 -0.000009 3.011609 -5.000191 7.999929 -0.000004 5.009426 -177.857197 3.386851 -179.999991 0.000005 -1.328999 167.697181 0.067409 -0.534304 -0.000001 -0.000008 0.181342 69.220477 6.917239 2.036065 25.456957 -7.355622 -0.000006 -1.725067 179.441255 0.328698 -0.000003 -0.000004 -1.128430 -12.775572 1.780376 0.589827 -0.000000 -0.000005 -0.194698 70.166042 -6.866469 -2.125484 25.456750 7.355599 -0.000012 
52.109901 -5.869162 84.217293 -0.557214 -9.063627 79.747212 -0.794352 0.126667 0.031194 2.414044 0.253175 0.059612 4.059119 0.253927 0.057006 5.063168 10.664089 -1.966453 1.758976 -9.948503 -3.005492 10.768560 -67.917427 11.009005 103.756120 -43.822323 86.933111 0.000001 -0.000000 -0.000002 77.365614 2.291011 -4.538541 0.000009 0.000006 -2.999989 -4.999733 -7.999892 0.000008 -16.968932 66.433528 20.107198 -68.276258 123.907705 72.566095 -0.000001 -0.000000 0.000000 -0.027462 -3.642311 1.990655 0.000008 -0.000011 3.011611 -5.000195 7.999932 -0.000005 5.025304 -177.860257 3.384983 -179.999991 0.000005 -1.328998 167.668194 0.077184 -0.534129 -0.000001 -0.000008 0.182682 69.231617 6.917395 2.036100 25.456955 -7.355623 -0.000006 -1.708355 179.455243 0.334200 -0.000003 -0.000004 -1.128571 -12.754372 1.781754 0.589883 0.000000 -0.000005 -0.193609 70.144485 -6.866435 -2.126110 25.456752 7.355599 -0.000012 
52.116100 -5.883472 84.225685 -0.532832 -9.079275 79.839215 -0.796031 0.130595 0.031127 2.410686 0.261029 0.059745 4.055762 0.261780 0.056950 5.069580 10.719384 -1.996938 1.742228 -9.990455 -3.043365 10.756746 -67.926621 10.994294 103.600753 -43.713805 86.838171 -0.000002 0.000002 -0.000000 77.478743 2.287451 -4.539243 0.000006 0.000007 -2.999990 -4.999731 -7.999893 0.000006 -17.002962 66.414669 20.145773 -68.238911 123.972878 72.573956 -0.000001 0.000000 -0.000000 -0.027457 -3.642261 1.990654 0.000010 -0.000011 3.011611 -5.000193 7.999931 -0.000005 5.041277 -177.863290 3.383134 -179.999991 0.000005 -1.328999 167.639193 0.085955 -0.534158 -0.000000 -0.000008 0.184019 69.242757 6.917516 2.036124 25.456957 -7.355623 -0.000006 -1.691790 179.469231 0.339739 -0.000003 -0.000004 -1.128698 -12.733369 1.783111 0.589931 -0.000000 -0.000005 -0.192526 70.123046 -6.866427 -2.126734 25.456754 7.355599 -0.000012 
52.092400 -5.849872 84.214394 -0.508524 -9.094879 79.931416 -0.797692 0.134520 0.031051 2.407368 0.268879 0.059861 4.052434 0.269628 0.056879 5.075388 10.775284 -2.027472 1.725922 -10.032838 -3.081351 10.743503 -67.935104 10.978138 103.444438 -43.605263 86.743423 0.000001 0.000000 -0.000001 77.594118 2.283808 -4.540042 0.000009 0.000008 -2.999990 -4.999729 -7.999895 0.000006 -17.037027 66.395770 20.184416 -68.200177 124.038148 72.580595 -0.000000 -0.000001 0.000001 -0.027462 -3.642211 1.990655 0.000008 -0.000011 3.011610 -5.000193 7.999929 -0.000005 5.057478 -177.866336 3.381324 -179.999991 0.000005 -1.328999 167.610575 0.095713 -0.533979 0.000000 -0.000008 0.185344 69.253795 6.917658 2.036061 25.456959 -7.355626 -0.000004 -1.675607 179.483219 0.345365 -0.000003 -0.000004 -1.128820 -12.712968 1.784425 0.589976 0.000000 -0.000005 -0.191463 70.101954 -6.866478 -2.127347 25.456749 7.355599 -0.000012 
52.107605 -5.867805 84.190895 -0.484125 -9.110468 80.023644 -0.799319 0.138441 0.030968 2.404108 0.276721 0.059954 4.049188 0.277469 0.056788 5.080217 10.831900 -2.058045 1.710326 -10.076101 -3.119504 10.727920 -67.942303 10.959595 103.285281 -43.496953 86.647322 0.000002 0.000001 0.000000 77.713052 2.280015 -4.540894 0.000008 0.000006 -2.999992 -4.999732 -7.999895 0.000009 -17.071216 66.376871 20.223208 -68.160070 124.103554 72.586203 -0.000000 -0.000001 0.000001 -0.027462 -3.642181 1.990658 0.000011 -0.000009 3.011611 -5.000193 7.999931 -0.000003 5.074052 -177.868371 3.379653 -179.999991 0.000005 -1.329000 167.582475 0.105468 -0.533776 0.000000 -0.000008 0.186652 69.264702 6.917723 2.036093 25.456962 -7.355625 -0.000004 -1.660033 179.498205 0.351091 -0.000003 -0.000005 -1.128911 -12.693469 1.785664 0.590007 -0.000000 -0.000005 -0.190427 70.081593 -6.866472 -2.127906 25.456750 7.355599 -0.000012 
52.140301 -5.920534 84.193192 -0.459499 -9.126051 80.116125 -0.800899 0.142358 0.030869 2.400950 0.284554 0.060009 4.046020 0.285300 0.056665 5.083688 10.889727 -2.088664 1.695712 -10.120357 -3.157873 10.709194 -67.947890 10.937842 103.124136 -43.388422 86.552478 0.000001 -0.000000 0.000001 77.836952 2.276015 -4.541865 0.000008 0.000007 -2.999991 -4.999731 -7.999891 0.000006 -17.105608 66.358027 20.262233 -68.118528 124.168960 72.590984 -0.000004 -0.000001 0.000000 -0.027463 -3.642162 1.990655 0.000008 -0.000009 3.011609 -5.000196 7.999930 -0.000006 5.091115 -177.871431 3.377972 -179.999991 0.000005 -1.328999 167.555182 0.114247 -0.533793 -0.000001 -0.000008 0.187937 69.275419 6.917807 2.036139 25.456957 -7.355626 -0.000004 -1.645287 179.512207 0.357027 -0.000004 -0.000004 -1.128959 -12.675264 1.786807 0.590028 -0.000000 -0.000005 -0.189429 70.062059 -6.866440 -2.128607 25.456752 7.355598 -0.000012 
52.137699 -5.916342 84.212692 -0.434492 -9.141641 80.208776 -0.802423 0.146270 0.030751 2.397901 0.292376 0.060020 4.042973 0.293119 0.056503 5.085461 10.949084 -2.119365 1.682345 -10.165908 -3.196506 10.686501 -67.951407 10.912031 102.957315 -43.280453 86.454622 -0.000000 0.000000 -0.000001 77.967251 2.271708 -4.542870 0.000009 0.000007 -2.999992 -4.999732 -7.999893 0.000007 -17.140245 66.339141 20.301532 -68.075396 124.234229 72.595000 -0.000001 0.000000 0.000001 -0.027459 -3.642160 1.990655 0.000009 -0.000010 3.011610 -5.000189 7.999929 -0.000005 5.108810 -177.873467 3.376482 -179.999991 0.000005 -1.329000 167.528667 0.123999 -0.533574 -0.000001 -0.000008 0.189190 69.285985 6.917818 2.036079 25.456955 -7.355623 -0.000005 -1.631614 179.527206 0.363152 -0.000004 -0.000004 -1.128970 -12.658766 1.787810 0.590028 -0.000000 -0.000005 -0.188481 70.043617 -6.866457 -2.129253 25.456754 7.355599 -0.000012 
52.134605 -5.902471 84.201096 -0.408982 -9.157263 80.301708 -0.803877 0.150173 0.030611 2.394982 0.300182 0.059976 4.040065 0.300922 0.056295 5.085131 11.010162 -2.150127 1.670505 -10.213149 -3.235463 10.658895 -67.952302 10.881216 102.786765 -43.172646 86.357784 -0.000001 0.000000 -0.000001 78.105269 2.267088 -4.544165 0.000007 0.000009 -2.999989 -4.999735 -7.999896 0.000007 -17.175247 66.320304 20.341270 -68.029251 124.299635 72.596783 -0.000003 0.000000 -0.000000 -0.027463 -3.642181 1.990655 0.000011 -0.000010 3.011609 -5.000192 7.999929 -0.000007 5.127287 -177.875529 3.375110 -179.999991 0.000005 -1.328999 167.503464 0.133750 -0.533352 0.000000 -0.000008 0.190407 69.296224 6.917773 2.036132 25.456957 -7.355623 -0.000005 -1.619228 179.541180 0.369575 -0.000004 -0.000004 -1.128920 -12.644162 1.788664 0.590004 0.000000 -0.000005 -0.187591 70.026651 -6.866442 -2.129799 25.456750 7.355600 -0.000012 
